<?xml version="1.0" encoding="iso-8859-1"?>
<!-- Generator: Adobe Illustrator 19.0.0, SVG Export Plug-In . SVG Version: 6.00 Build 0)  -->
<svg version="1.1" id="Capa_1" xmlns="http://www.w3.org/2000/svg" xmlns:xlink="http://www.w3.org/1999/xlink" x="0px" y="0px"
	 viewBox="0 0 512 512" style="enable-background:new 0 0 512 512;" xml:space="preserve">
<path style="fill:#FC9F65;" d="M500.02,247.417l-64.039-44.624c-7.944-5.536-16.76-9.064-25.804-10.656
	c5.27-7.521,9.009-16.249,10.712-25.781l13.728-76.836c1.281-7.167-4.97-13.418-12.138-12.138L345.643,91.11
	c-9.532,1.703-18.26,5.442-25.781,10.712c-1.592-9.045-5.12-17.86-10.656-25.804L264.583,11.98c-4.163-5.974-13.003-5.974-17.165,0
	l-44.624,64.038c-5.536,7.944-9.064,16.76-10.656,25.804c-7.521-5.27-16.249-9.009-25.781-10.712L89.521,77.383
	c-7.167-1.281-13.418,4.97-12.138,12.138l13.728,76.836c1.703,9.532,5.442,18.26,10.712,25.781
	c-9.045,1.592-17.86,5.12-25.804,10.656L11.98,247.417c-5.974,4.163-5.974,13.003,0,17.165l64.038,44.624
	c7.944,5.535,16.76,9.064,25.804,10.656c-5.27,7.521-9.009,16.249-10.712,25.781l-13.728,76.836
	c-1.281,7.167,4.97,13.418,12.138,12.138l76.836-13.728c9.532-1.703,18.26-5.442,25.781-10.712
	c1.592,9.045,5.12,17.86,10.656,25.804l44.624,64.039c4.163,5.974,13.003,5.974,17.165,0l44.624-64.039
	c5.535-7.944,9.064-16.76,10.656-25.804c7.521,5.27,16.249,9.009,25.781,10.712l76.836,13.728
	c7.167,1.281,13.418-4.97,12.138-12.138l-13.728-76.836c-1.703-9.532-5.442-18.26-10.712-25.781
	c9.044-1.592,17.86-5.12,25.804-10.656l64.039-44.624C505.993,260.42,505.993,251.58,500.02,247.417z"/>
<circle style="fill:#FBDD56;" cx="256" cy="256" r="147.71"/>
<g>
	<ellipse style="fill:#FF6E6E;" cx="182.6" cy="242.83" rx="27.08" ry="21.566"/>
	<ellipse style="fill:#FF6E6E;" cx="329.4" cy="242.83" rx="27.08" ry="21.566"/>
</g>
<path style="fill:#4A5058;" d="M256,245.884L256,245.884c-10.836,0-19.621-8.785-19.621-19.621v-14.265
	c0-2.958,2.398-5.356,5.356-5.356h28.529c2.958,0,5.356,2.398,5.356,5.356v14.265C275.621,237.099,266.836,245.884,256,245.884z"/>
<path style="opacity:0.08;enable-background:new    ;" d="M218.447,113.113C155.057,129.728,108.29,187.399,108.29,256
	c0,81.578,66.132,147.71,147.71,147.71c29.172,0,56.367-8.46,79.271-23.056C146.973,364.776,131.354,176.715,218.447,113.113z"/>
<path d="M103.123,312.476c-8.251-1.452-15.928-4.623-22.816-9.423l-64.038-44.624C15.165,257.66,15,256.577,15,256
	s0.165-1.66,1.269-2.429l64.038-44.624c6.889-4.8,14.565-7.971,22.816-9.423c2.525-0.444,4.648-2.147,5.629-4.516
	c0.981-2.369,0.685-5.075-0.787-7.174c-4.807-6.86-7.993-14.53-9.471-22.796L84.766,88.202c-0.236-1.324,0.413-2.207,0.821-2.615
	c0.409-0.408,1.297-1.058,2.614-0.821l76.837,13.728c8.264,1.476,15.934,4.663,22.796,9.47c2.1,1.471,4.804,1.768,7.174,0.787
	c2.368-0.981,4.072-3.104,4.517-5.629c1.452-8.25,4.622-15.927,9.422-22.816l44.624-64.038C254.34,15.165,255.423,15,256,15
	s1.66,0.165,2.43,1.269l44.624,64.038c4.8,6.89,7.97,14.566,9.422,22.816c0.444,2.525,2.148,4.648,4.517,5.629
	c2.369,0.981,5.074,0.684,7.174-0.787c6.862-4.808,14.532-7.994,22.797-9.47L423.8,84.766c1.324-0.234,2.205,0.413,2.614,0.821
	c0.408,0.408,1.058,1.29,0.821,2.614l-13.729,76.836c-1.478,8.266-4.664,15.936-9.471,22.796c-1.472,2.1-1.769,4.806-0.787,7.174
	c0.98,2.369,3.104,4.072,5.629,4.516c8.251,1.452,15.928,4.623,22.816,9.423l27.369,19.072c3.4,2.369,8.073,1.533,10.441-1.865
	c2.368-3.398,1.533-8.073-1.865-10.441L440.27,196.64c-5.76-4.013-11.957-7.124-18.513-9.299c3.098-6.173,5.28-12.754,6.515-19.665
	L442,90.84c1.032-5.779-0.829-11.708-4.981-15.859c-4.151-4.151-10.08-6.013-15.858-4.98l-76.835,13.727
	c-6.91,1.234-13.492,3.417-19.666,6.515c-2.176-6.556-5.286-12.753-9.299-18.513L270.736,7.692C267.38,2.875,261.871,0,256,0
	s-11.38,2.875-14.736,7.692L196.64,71.731c-4.013,5.759-7.123,11.957-9.299,18.512c-6.174-3.098-12.756-5.281-19.665-6.515
	L90.84,70.001c-5.775-1.033-11.708,0.828-15.858,4.98c-4.152,4.151-6.014,10.08-4.981,15.86l13.729,76.836
	c1.234,6.911,3.417,13.492,6.515,19.665c-6.556,2.175-12.753,5.286-18.513,9.299l-64.04,44.623C2.876,244.621,0,250.129,0,256
	s2.876,11.379,7.692,14.736L71.73,315.36c5.76,4.013,11.957,7.124,18.513,9.299c-3.098,6.173-5.28,12.754-6.515,19.665L70,421.16
	c-1.032,5.779,0.829,11.709,4.981,15.859c3.396,3.396,7.982,5.26,12.702,5.26c1.049,0,2.105-0.092,3.156-0.28l8.929-1.595
	c4.077-0.728,6.792-4.625,6.063-8.702c-0.729-4.078-4.623-6.795-8.702-6.064l-8.929,1.596c-1.325,0.236-2.205-0.413-2.614-0.821
	c-0.408-0.408-1.058-1.29-0.821-2.614l13.729-76.836c1.478-8.266,4.664-15.936,9.471-22.796c1.472-2.1,1.769-4.806,0.787-7.174
	C107.771,314.624,105.648,312.92,103.123,312.476z M187.132,198.244c-4.143,0-7.5,3.358-7.5,7.5v11.625c0,4.142,3.357,7.5,7.5,7.5
	s7.5-3.358,7.5-7.5v-11.625C194.632,201.602,191.274,198.244,187.132,198.244z M57.469,330.116l-24.208,10.027
	c-3.827,1.585-5.645,5.973-4.059,9.799c1.196,2.888,3.988,4.632,6.932,4.632c0.956,0,1.929-0.184,2.867-0.573l24.208-10.027
	c3.827-1.585,5.645-5.973,4.059-9.799C65.683,330.349,61.296,328.53,57.469,330.116z M451.664,182.456
	c0.956,0,1.929-0.184,2.867-0.573l24.208-10.027c3.827-1.585,5.645-5.973,4.059-9.799c-1.585-3.827-5.971-5.645-9.799-4.059
	l-24.208,10.027c-3.827,1.585-5.644,5.973-4.059,9.799C445.929,180.713,448.721,182.456,451.664,182.456z M168.026,63.209
	c1.196,2.888,3.988,4.632,6.932,4.632c0.956,0,1.929-0.184,2.867-0.573c3.827-1.585,5.645-5.973,4.059-9.799l-10.027-24.208
	c-1.585-3.826-5.971-5.645-9.799-4.059c-3.827,1.585-5.645,5.973-4.059,9.799L168.026,63.209z M334.175,67.269
	c0.939,0.389,1.91,0.573,2.867,0.573c2.943,0,5.735-1.744,6.932-4.632l10.027-24.208c1.586-3.827-0.232-8.214-4.059-9.799
	c-3.823-1.584-8.213,0.232-9.799,4.059L330.116,57.47C328.53,61.296,330.348,65.684,334.175,67.269z M33.261,171.856l24.208,10.027
	c0.938,0.389,1.91,0.573,2.867,0.573c2.943,0,5.735-1.744,6.932-4.632c1.586-3.827-0.231-8.214-4.059-9.799l-24.208-10.027
	c-3.824-1.584-8.214,0.232-9.799,4.059C27.616,165.884,29.434,170.271,33.261,171.856z M270.265,199.142h-28.529
	c-7.089,0-12.856,5.767-12.856,12.856v14.265c0,14.955,12.166,27.121,27.121,27.121s27.121-12.167,27.121-27.121v-14.265
	C283.121,204.909,277.353,199.142,270.265,199.142z M268.121,226.263c0,6.684-5.438,12.121-12.121,12.121
	s-12.121-5.438-12.121-12.121v-12.121h24.242V226.263z M343.974,448.79c-1.585-3.827-5.973-5.644-9.799-4.059
	c-3.827,1.585-5.645,5.973-4.059,9.799l10.027,24.208c1.196,2.888,3.988,4.632,6.932,4.632c0.956,0,1.929-0.184,2.867-0.573
	c3.827-1.585,5.645-5.973,4.059-9.799L343.974,448.79z M504.308,241.264l-5.763-4.016c-3.399-2.368-8.072-1.532-10.441,1.865
	c-2.368,3.398-1.533,8.073,1.865,10.441l5.763,4.016c1.103,0.77,1.268,1.853,1.268,2.43s-0.165,1.66-1.269,2.429l-64.038,44.624
	c-6.889,4.8-14.565,7.971-22.816,9.423c-2.525,0.444-4.649,2.147-5.629,4.516c-0.981,2.369-0.684,5.075,0.787,7.174
	c4.807,6.86,7.993,14.53,9.471,22.796l13.729,76.836c0.236,1.324-0.413,2.206-0.821,2.615c-0.409,0.408-1.295,1.061-2.614,0.821
	l-76.837-13.728c-8.264-1.476-15.934-4.663-22.796-9.47c-2.101-1.471-4.805-1.769-7.174-0.787c-2.368,0.982-4.072,3.105-4.517,5.629
	c-1.452,8.25-4.622,15.927-9.422,22.816l-44.624,64.038c-0.77,1.104-1.853,1.269-2.43,1.269s-1.66-0.165-2.43-1.269l-44.624-64.038
	c-4.8-6.89-7.97-14.566-9.422-22.816c-0.444-2.525-2.148-4.648-4.517-5.629c-2.37-0.982-5.075-0.684-7.174,0.787
	c-6.862,4.808-14.532,7.994-22.797,9.47l-28.135,5.027c-4.077,0.729-6.792,4.625-6.063,8.703c0.728,4.077,4.619,6.793,8.702,6.063
	l28.134-5.026c6.91-1.234,13.492-3.417,19.666-6.515c2.176,6.556,5.286,12.753,9.299,18.513l44.624,64.038
	C244.62,509.125,250.129,512,256,512s11.38-2.875,14.736-7.692l44.624-64.039c4.013-5.759,7.123-11.957,9.299-18.512
	c6.174,3.098,12.756,5.281,19.665,6.515L421.16,442c5.772,1.032,11.707-0.829,15.858-4.98c4.152-4.151,6.014-10.08,4.981-15.86
	l-13.728-76.836c-1.234-6.911-3.417-13.492-6.515-19.665c6.556-2.175,12.753-5.286,18.513-9.299l64.038-44.624
	C509.124,267.379,512,261.871,512,256S509.124,244.621,504.308,241.264z M478.739,340.144l-24.208-10.027
	c-3.824-1.583-8.214,0.232-9.799,4.059c-1.586,3.827,0.232,8.214,4.059,9.799l24.208,10.027c0.939,0.389,1.91,0.573,2.867,0.573
	c2.943,0,5.735-1.744,6.932-4.632C484.384,346.116,482.566,341.729,478.739,340.144z M177.825,444.731
	c-3.824-1.583-8.214,0.232-9.799,4.059l-10.027,24.208c-1.586,3.827,0.232,8.214,4.059,9.799c0.938,0.389,1.91,0.573,2.867,0.573
	c2.943,0,5.735-1.744,6.932-4.632l10.027-24.208C183.47,450.704,181.652,446.316,177.825,444.731z M324.868,198.244
	c-4.143,0-7.5,3.358-7.5,7.5v11.625c0,4.142,3.357,7.5,7.5,7.5s7.5-3.358,7.5-7.5v-11.625
	C332.368,201.602,329.011,198.244,324.868,198.244z M256,100.79c-85.583,0-155.21,69.627-155.21,155.21S170.417,411.21,256,411.21
	S411.21,341.583,411.21,256S341.583,100.79,256,100.79z M256,396.21c-77.313,0-140.21-62.898-140.21-140.21
	S178.688,115.79,256,115.79S396.21,178.688,396.21,256S333.313,396.21,256,396.21z"/>
<g>
</g>
<g>
</g>
<g>
</g>
<g>
</g>
<g>
</g>
<g>
</g>
<g>
</g>
<g>
</g>
<g>
</g>
<g>
</g>
<g>
</g>
<g>
</g>
<g>
</g>
<g>
</g>
<g>
</g>
</svg>
