<?xml version="1.0" encoding="iso-8859-1"?>
<!-- Generator: Adobe Illustrator 19.0.0, SVG Export Plug-In . SVG Version: 6.00 Build 0)  -->
<svg version="1.1" id="Capa_1" xmlns="http://www.w3.org/2000/svg" xmlns:xlink="http://www.w3.org/1999/xlink" x="0px" y="0px"
	 viewBox="0 0 511.998 511.998" style="enable-background:new 0 0 511.998 511.998;" xml:space="preserve">
<path style="fill:#596675;" d="M126.626,362.629c-22.395,23.706-85.858,52.389-109.563,29.994s1.323-87.386,23.718-111.091
	s59.766-24.769,83.471-2.374S149.021,338.923,126.626,362.629z"/>
<path style="opacity:0.1;enable-background:new    ;" d="M124.252,279.158c-23.706-22.395-61.077-21.332-83.471,2.374
	c-1.821,1.928-3.659,4.132-5.487,6.561c4.074,41.389,18.932,76.773,43.751,104.359c19.259-7.578,37.546-19.198,47.583-29.823
	C149.021,338.923,147.958,301.552,124.252,279.158z"/>
<path style="fill:#596675;" d="M385.372,362.629c22.395,23.706,85.858,52.389,109.563,29.994
	c23.706-22.395-1.323-87.386-23.718-111.091s-59.766-24.769-83.471-2.374C364.041,301.552,362.978,338.923,385.372,362.629z"/>
<path style="opacity:0.1;enable-background:new    ;" d="M387.747,279.158c23.706-22.395,61.078-21.332,83.471,2.374
	c1.821,1.928,3.659,4.132,5.487,6.561c-4.074,41.389-18.932,76.773-43.751,104.359c-19.259-7.578-37.546-19.198-47.583-29.823
	C362.978,338.923,364.041,301.552,387.747,279.158z"/>
<path style="fill:#596675;" d="M458.451,264.193c0-122.393-90.641-221.612-202.452-221.612S53.546,141.8,53.546,264.193
	s90.641,174.761,202.452,174.761S458.451,386.586,458.451,264.193z"/>
<path style="opacity:0.1;enable-background:new    ;" d="M458.451,264.193c0-122.393-90.641-221.612-202.452-221.612
	S53.546,141.8,53.546,264.193s90.641,174.761,202.452,174.761S458.451,386.586,458.451,264.193z"/>
<path style="fill:#8090A0;" d="M255.999,169.96c-73.216,0-132.569,64.459-132.569,143.974c0,46.67,20.453,88.145,52.147,114.453
	c24.653,7.138,51.843,10.569,80.422,10.569c28.579,0,55.769-3.431,80.422-10.569c31.694-26.308,52.147-67.783,52.147-114.453
	C388.568,234.419,329.214,169.96,255.999,169.96z"/>
<g style="opacity:0.1;">
	<path d="M255.999,334.994c-1.919,0-3.839-0.732-5.303-2.197l-18.599-18.599c-2.929-2.929-2.929-7.679,0-10.608
		s7.679-2.929,10.608,0L256,316.885l13.296-13.296c2.929-2.929,7.679-2.929,10.608,0s2.929,7.679,0,10.608l-18.599,18.599
		C259.838,334.261,257.919,334.994,255.999,334.994z"/>
	<path d="M197.565,370.868c-1.919,0-3.839-0.733-5.303-2.197l-18.599-18.599c-2.929-2.929-2.929-7.679,0-10.607
		c2.929-2.929,7.679-2.929,10.608,0l13.296,13.296l13.296-13.296c2.929-2.929,7.679-2.929,10.607,0
		c2.929,2.929,2.929,7.679,0,10.607L202.87,368.67C201.405,370.136,199.484,370.868,197.565,370.868z"/>
	<path d="M314.432,370.868c-1.919,0-3.839-0.733-5.303-2.197l-18.599-18.599c-2.929-2.929-2.929-7.679,0-10.607
		c2.929-2.929,7.679-2.929,10.608,0l13.296,13.296l13.296-13.296c2.929-2.929,7.679-2.929,10.608,0
		c2.929,2.929,2.929,7.679,0,10.607l-18.599,18.599C318.271,370.136,316.352,370.868,314.432,370.868z"/>
</g>
<path style="opacity:0.1;enable-background:new    ;" d="M227.057,44.845c-98.099,15.374-173.51,107.714-173.51,219.349
	c0,122.393,90.641,174.762,202.452,174.762c8.557,0,16.988-0.31,25.266-0.932C69.426,418.48,154.863,113.439,227.057,44.845z"/>
<path style="fill:#596675;" d="M464.568,35.558L464.568,35.558C429.5,55.887,389.686,66.591,349.152,66.591H162.846
	c-40.533,0-80.348-10.706-115.416-31.033l0,0c-12.485-7.238-27.633,3.926-24.352,17.979c6.511,27.887,21.931,54.064,50.888,66.749
	c-9.402,16.054-14.796,34.739-14.796,54.686c0,59.857,48.524,108.38,108.38,108.38c36.515,0,68.811-18.058,88.448-45.731
	c19.637,27.673,51.933,45.731,88.448,45.731c59.857,0,108.38-48.524,108.38-108.38c0-19.948-5.394-38.632-14.796-54.686
	c28.957-12.685,44.376-38.861,50.888-66.749C492.201,39.485,477.053,28.321,464.568,35.558z"/>
<g>
	<circle style="fill:#FFFFFF;" cx="167.552" cy="174.973" r="68.515"/>
	<circle style="fill:#FFFFFF;" cx="344.445" cy="174.973" r="68.515"/>
</g>
<path style="opacity:0.1;enable-background:new    ;" d="M271.35,198.986l23.114,23.869c4.176,4.312,4.724,10.974,1.31,15.911
	L261.36,288.53c-2.591,3.747-8.131,3.747-10.722,0l-34.414-49.764c-3.414-4.937-2.866-11.599,1.31-15.911l23.114-23.869H271.35z"/>
<path style="fill:#FBDD56;" d="M240.648,198.986l-15.688,14.14c-4.995,4.503-5.992,11.962-2.355,17.619l26.518,41.24
	c3.218,5.005,10.535,5.005,13.753,0l26.518-41.24c3.637-5.656,2.64-13.116-2.355-17.619l-15.688-14.14
	C262.626,191.124,249.371,191.124,240.648,198.986z"/>
<path style="opacity:0.1;enable-background:new    ;" d="M254.723,193.147c-5.062,0.281-10.052,2.213-14.075,5.84l-15.688,14.14
	c-4.995,4.502-5.992,11.962-2.355,17.619l26.518,41.24c1.984,3.085,5.523,4.261,8.702,3.543
	C248.992,260.007,250.553,209.194,254.723,193.147z"/>
<g>
	<path style="fill:#FBDD56;" d="M197.477,478.727L197.477,478.727c-16.528,0-29.926-13.398-29.926-29.926v-19.691
		c0-16.527,13.398-29.926,29.926-29.926l0,0c16.527,0,29.926,13.398,29.926,29.926v19.691
		C227.404,465.329,214.005,478.727,197.477,478.727z"/>
	<path style="fill:#FBDD56;" d="M314.521,478.727L314.521,478.727c16.528,0,29.926-13.398,29.926-29.926v-19.691
		c0-16.527-13.398-29.926-29.926-29.926l0,0c-16.527,0-29.926,13.398-29.926,29.926v19.691
		C284.595,465.329,297.993,478.727,314.521,478.727z"/>
</g>
<path d="M168.43,152.001c-4.142,0-7.501,3.358-7.501,7.501v14.781c0,4.142,3.358,7.501,7.501,7.501c4.142,0,7.501-3.358,7.501-7.501
	v-14.781C175.931,155.358,172.572,152.001,168.43,152.001z M343.568,181.782c4.142,0,7.501-3.358,7.501-7.501V159.5
	c0-4.142-3.358-7.501-7.501-7.501c-4.142,0-7.501,3.358-7.501,7.501v14.781C336.068,178.424,339.426,181.782,343.568,181.782z
	 M476.671,276.381c-3.244-3.434-6.85-6.51-10.754-9.186c0.012-1.001,0.036-1.995,0.036-3.002c0-21.791-2.819-43.359-8.364-64.148
	c1.789-8.078,2.74-16.465,2.74-25.073c0-17.878-4.131-35.49-12.004-51.395c30.052-16.477,42.641-45.813,47.9-68.334
	c2.206-9.448-1.273-18.907-9.08-24.689c-7.827-5.796-17.918-6.365-26.337-1.485c-33.748,19.563-72.186,29.937-111.19,30.018
	C320.401,43.17,288.919,35.08,256.001,35.08c-32.917,0-64.396,8.089-93.612,24.004c-18.139-0.037-36.252-2.292-53.844-6.717
	c-4.015-1.008-8.093,1.427-9.104,5.444c-1.01,4.017,1.427,8.093,5.444,9.104c18.935,4.762,38.437,7.178,57.961,7.178h1.467
	c0.02,0,0.039,0,0.058,0h183.336c0.008,0,0.016,0.002,0.023,0.002c0.008,0,0.015-0.002,0.022-0.002h1.4
	c41.802,0,83.012-11.081,119.177-32.044c4.751-2.756,8.769-0.266,9.887,0.562c1.11,0.822,4.637,3.917,3.398,9.223
	c-4.885,20.924-16.935,48.592-46.594,61.585c-1.961,0.859-3.462,2.516-4.124,4.553c-0.661,2.037-0.421,4.259,0.662,6.107
	c9.007,15.38,13.768,32.98,13.768,50.896c0,55.625-45.254,100.88-100.88,100.88c-22.385,0-44.017-7.441-61.616-21.033l12.871-20.017
	c0.22-0.342,0.41-0.695,0.608-1.046c13.118,10.762,29.885,17.231,48.137,17.231c41.915,0,76.016-34.101,76.016-76.017
	c0-41.915-34.101-76.016-76.016-76.016c-41.916,0-76.017,34.101-76.017,76.016c0,4.742,0.458,9.377,1.293,13.881
	c-8.62-4.375-18.829-4.375-27.449,0c0.835-4.504,1.293-9.139,1.293-13.881c0-41.915-34.101-76.016-76.017-76.016
	c-41.915,0-76.016,34.101-76.016,76.016c0,41.916,34.101,76.017,76.016,76.017c18.251,0,35.019-6.469,48.137-17.231
	c0.198,0.35,0.388,0.703,0.608,1.045l12.871,20.017c-17.598,13.592-39.231,21.033-61.616,21.033
	c-55.625,0-100.88-45.254-100.88-100.88c0-17.915,4.761-35.515,13.768-50.896c1.082-1.848,1.323-4.07,0.661-6.107
	c-0.662-2.037-2.163-3.694-4.124-4.553c-29.658-12.992-41.708-40.66-46.594-61.585c-1.239-5.304,2.288-8.4,3.398-9.222
	c1.118-0.828,5.137-3.317,9.888-0.563c6.49,3.762,13.239,7.257,20.059,10.387c3.763,1.728,8.217,0.077,9.946-3.688
	c1.727-3.765,0.077-8.218-3.688-9.946c-6.387-2.932-12.711-6.205-18.793-9.731c-8.419-4.881-18.51-4.311-26.337,1.485
	c-7.807,5.78-11.286,15.241-9.08,24.689c5.259,22.521,17.848,51.857,47.901,68.334c-7.874,15.906-12.005,33.517-12.005,51.395
	c0,8.608,0.951,16.996,2.74,25.073c-5.545,20.788-8.364,42.357-8.364,64.148c0,1.008,0.012,2.009,0.024,3.01
	c-3.899,2.673-7.502,5.747-10.743,9.178c-24.575,26.015-51.362,95.294-23.416,121.694c7.594,7.174,18.022,10.069,29.599,10.068
	c17.543-0.001,37.704-6.658,54.602-15.141c17.245,16.403,38.661,29.202,63.937,38.236V448.8c0,20.638,16.789,37.427,37.427,37.427
	s37.427-16.789,37.427-37.427v-2.991c6.957,0.423,14.019,0.646,21.095,0.646c7.076,0,14.138-0.223,21.095-0.646v2.991
	c0,20.638,16.79,37.427,37.427,37.427c20.638,0,37.427-16.789,37.427-37.427v-17.552c3.432-1.228,6.814-2.524,10.09-3.887
	c3.825-1.591,5.635-5.981,4.044-9.806c-1.591-3.825-5.982-5.635-9.806-4.044c-2.173,0.904-4.397,1.777-6.652,2.62
	c-5.288-14.259-19.027-24.449-35.104-24.449c-20.638,0-37.427,16.789-37.427,37.427v1.678c-13.897,0.882-28.293,0.882-42.19,0
	v-1.678c0-20.638-16.789-37.427-37.427-37.427c-16.076,0-29.815,10.19-35.104,24.449c-20.184-7.552-41.327-19.171-59.048-37.041
	c-0.288-0.354-0.604-0.674-0.944-0.964c-22.849-23.491-39.785-57.587-41.224-107.058c-0.001-0.057-0.002-0.113-0.005-0.17
	c-0.063-2.207-0.105-4.435-0.105-6.704c0-12.534,0.996-24.986,2.957-37.239c19.085,37.864,58.33,63.899,103.547,63.899
	c25.279,0,49.736-8.244,69.766-23.359l5.496,8.548c2.898,4.507,7.828,7.198,13.186,7.198c5.358,0,10.288-2.691,13.185-7.198
	l5.496-8.549c20.031,15.115,44.487,23.36,69.766,23.36c45.216,0,84.461-26.035,103.547-63.899
	c1.96,12.252,2.957,24.705,2.957,37.239c0,2.261-0.043,4.493-0.105,6.711c-0.002,0.045-0.003,0.09-0.005,0.135
	c-1.283,44.441-15.155,80.367-41.342,107.191c-0.263,0.234-0.515,0.482-0.746,0.756c-5.729,5.78-12.024,11.143-18.909,16.061
	c-3.371,2.407-4.152,7.092-1.744,10.463c1.464,2.05,3.769,3.142,6.109,3.142c1.508,0,3.032-0.454,4.353-1.397
	c6.172-4.408,11.931-9.176,17.291-14.268c16.906,8.493,37.08,15.158,54.634,15.157c11.574,0,22.007-2.895,29.599-10.068
	C528.032,371.675,501.245,302.395,476.671,276.381z M199.772,59.092c18.08-5.988,36.889-9.01,56.227-9.01s38.147,3.022,56.227,9.01
	H199.772z M292.095,429.109c0-12.366,10.061-22.426,22.426-22.426c11.585,0,21.145,8.83,22.307,20.113
	c0.002,0.016,0.003,0.031,0.005,0.047c0.075,0.745,0.114,1.501,0.114,2.266V448.8c0,12.366-10.06,22.426-22.426,22.426
	c-12.366,0-22.426-10.06-22.426-22.426V429.109z M175.052,429.109c0-0.765,0.039-1.521,0.114-2.267
	c0.002-0.015,0.003-0.031,0.005-0.046c1.161-11.283,10.722-20.113,22.307-20.113c12.366,0,22.426,10.06,22.426,22.426v19.691
	c0,12.366-10.061,22.426-22.426,22.426c-12.366,0-22.426-10.06-22.426-22.426L175.052,429.109L175.052,429.109z M79.297,374.144
	c1.921,2.552,3.945,5.018,6.02,7.443c-11.536,5.414-23.14,9.179-33.402,10.776c-9.483,1.477-22.331,1.774-29.703-5.191
	c-18.583-17.555,1.978-77.156,24.019-100.488c0.255-0.27,0.532-0.518,0.793-0.783C50.179,320.214,60.99,349.827,79.297,374.144z
	 M344.447,113.957c33.644,0,61.015,27.371,61.015,61.015c0,33.645-27.371,61.016-61.015,61.016
	c-33.645,0-61.016-27.371-61.016-61.016C283.432,141.329,310.803,113.957,344.447,113.957z M167.551,235.987
	c-33.644,0-61.015-27.371-61.015-61.016c0-33.644,27.371-61.015,61.015-61.015c33.645,0,61.016,27.371,61.016,61.015
	C228.567,208.616,201.195,235.987,167.551,235.987z M256.567,267.929c-0.06,0.093-0.199,0.31-0.567,0.31
	c-0.368,0-0.508-0.217-0.567-0.31l-26.519-41.239c-1.657-2.578-1.208-5.938,1.068-7.991l15.688-14.14v0.001
	c5.889-5.307,14.771-5.308,20.659-0.001l15.688,14.14c2.276,2.052,2.726,5.413,1.068,7.991L256.567,267.929z M489.785,387.171
	c-7.373,6.965-20.222,6.667-29.703,5.19c-10.257-1.596-21.854-5.357-33.384-10.768c8.374-9.769,15.461-20.539,21.192-32.248
	c9.208-18.814,14.914-40.093,17.071-63.457c0.265,0.268,0.546,0.52,0.805,0.794C487.806,310.014,508.368,369.616,489.785,387.171z"
	/>
<g>
</g>
<g>
</g>
<g>
</g>
<g>
</g>
<g>
</g>
<g>
</g>
<g>
</g>
<g>
</g>
<g>
</g>
<g>
</g>
<g>
</g>
<g>
</g>
<g>
</g>
<g>
</g>
<g>
</g>
</svg>
