<?xml version="1.0" encoding="iso-8859-1"?>
<!-- Generator: Adobe Illustrator 19.0.0, SVG Export Plug-In . SVG Version: 6.00 Build 0)  -->
<svg version="1.1" id="Capa_1" xmlns="http://www.w3.org/2000/svg" xmlns:xlink="http://www.w3.org/1999/xlink" x="0px" y="0px"
	 viewBox="0 0 512 512" style="enable-background:new 0 0 512 512;" xml:space="preserve">
<path style="fill:#57555C;" d="M376,256h-30c-8.291,0-15-6.709-15-15s6.709-15,15-15h30c8.276,0,15-6.724,15-15s-6.724-15-15-15h-30
	c-24.814,0-45-20.186-45-45s20.186-45,45-45h30c8.291,0,15,6.709,15,15s-6.709,15-15,15h-30c-8.276,0-15,6.724-15,15s6.724,15,15,15
	h30c24.814,0,45,20.186,45,45S400.815,256,376,256z"/>
<path style="fill:#FD3018;" d="M436,226h-45l-30,30l0,0l30,30h45c8.284,0,15-6.716,15-15v-30C451,232.716,444.284,226,436,226z"/>
<path style="fill:#FEA832;" d="M151,226H76c-8.284,0-15,6.716-15,15v30c0,8.284,6.716,15,15,15h75l30-30L151,226z"/>
<rect x="151" y="226" style="fill:#DFCCBF;" width="240" height="60"/>
<polygon style="fill:#EFE6DE;" points="286,286 151,286 151,226 226,226 "/>
<path style="fill:#B80000;" d="M256,0C114.615,0,0,114.615,0,256s114.615,256,256,256s256-114.615,256-256S397.385,0,256,0z
	 M415.806,96.194C458.492,138.88,482,195.633,482,256c0,55.318-19.753,107.594-55.902,148.799L107.202,85.901
	C148.407,49.753,200.682,30,256,30C316.367,30,373.12,53.508,415.806,96.194z M96.194,415.806C53.508,373.12,30,316.367,30,256
	c0-55.318,19.753-107.593,55.901-148.798L404.797,426.1C363.593,462.247,311.318,482,256,482
	C195.633,482,138.88,458.492,96.194,415.806z"/>
<path style="fill:#FD3018;" d="M256,512c70.692,0,134.692-28.654,181.019-74.981L74.981,74.981C28.654,121.308,0,185.308,0,256
	C0,397.385,114.615,512,256,512z M85.901,107.202L404.797,426.1C363.593,462.247,311.318,482,256,482
	c-60.367,0-117.12-23.508-159.806-66.194S30,316.367,30,256C30,200.682,49.753,148.407,85.901,107.202z"/>
<g>
</g>
<g>
</g>
<g>
</g>
<g>
</g>
<g>
</g>
<g>
</g>
<g>
</g>
<g>
</g>
<g>
</g>
<g>
</g>
<g>
</g>
<g>
</g>
<g>
</g>
<g>
</g>
<g>
</g>
</svg>
