<?xml version="1.0" encoding="iso-8859-1"?>
<!-- Generator: Adobe Illustrator 19.0.0, SVG Export Plug-In . SVG Version: 6.00 Build 0)  -->
<svg version="1.1" id="Layer_1" xmlns="http://www.w3.org/2000/svg" xmlns:xlink="http://www.w3.org/1999/xlink" x="0px" y="0px"
	 viewBox="0 0 512.362 512.362" style="enable-background:new 0 0 512.362 512.362;" xml:space="preserve">
<g>
	<path style="fill:#40596B;" d="M186.497,489.701c-166.4,51.2-165.333-21.333-165.333-21.333c6.4-41.6,71.467-51.2,71.467-51.2
		c52.267-3.2,71.467-28.8,71.467-28.8h186.667c0,0,46.933,12.8,83.2,34.133c0,0,60.8,5.333,58.667,45.867
		c0,0-3.2,38.4-74.667,29.867c0,0-80-12.8-104.533-23.467l6.4-44.8l-128,19.2L186.497,489.701z"/>
	<path style="fill:#40596B;" d="M333.697,171.834c-52.267,14.933-104.533,14.933-156.8,0c9.6-33.067,12.8-67.2,9.6-100.267
		c-3.2-35.2,27.733-67.2,67.2-67.2h1.067c39.467,0,70.4,30.933,67.2,67.2C321.964,104.634,325.164,138.768,333.697,171.834z"/>
</g>
<g>
	<path style="fill:#F8B64C;" d="M207.831,88.634c2.133,10.667-1.067,19.2-6.4,20.267c-5.333,1.067-11.733-6.4-13.867-16
		c-2.133-9.6,1.067-19.2,6.4-20.267S205.697,77.968,207.831,88.634z"/>
	<path style="fill:#F8B64C;" d="M303.831,88.634c-2.133,10.667,1.067,19.2,6.4,20.267s11.733-6.4,13.867-16
		c2.133-10.667-1.067-19.2-6.4-20.267C312.364,71.568,305.964,77.968,303.831,88.634z"/>
</g>
<path style="fill:#FFD15C;" d="M171.564,233.701h-37.333c0,0,6.4,67.2,4.267,74.667c0,0-50.133,72.533-55.467,85.333
	c0,0-6.4,9.6-14.933,3.2c0,0-10.667-5.333-18.133-5.333c-7.467,0-19.2-7.467-19.2-7.467s-13.867,5.333-16,28.8
	c0,0-2.133,1.067-5.333-2.133c0,0-9.6-7.467-7.467,4.267c0,0,17.067,21.333,27.733,17.067c0,0,5.333,6.4,20.267,1.067
	c0,0,16,0,49.067-20.267c0,0,66.133-58.667,75.733-87.467C174.764,325.434,176.897,264.634,171.564,233.701z M40.364,409.701
	c0,0-2.133,7.467-11.733,5.333c0,0-8.533-2.133-1.067-16c0,0,2.133,0,2.133-4.267c0,0,4.267,5.333,8.533,5.333
	C38.231,399.034,45.697,404.368,40.364,409.701z"/>
<ellipse transform="matrix(-0.5283 -0.849 0.849 -0.5283 -344.3617 633.9628)" style="fill:#FF7058;" cx="3.914" cy="412.634" rx="5.333" ry="3.2"/>
<g>
	<path style="fill:#F8B64C;" d="M28.631,431.034c-4.267-2.133-7.467-5.333-10.667-8.533c-2.133-1.067-3.2-3.2-5.333-5.333
		c0,0-1.067-1.067-1.067-2.133c0-1.067,0-1.067,0-2.133c1.067-1.067,3.2-1.067,4.267-1.067l0,0l0,0c2.133,0,3.2,1.067,5.333,2.133
		c2.133,1.067,3.2,2.133,4.267,3.2c3.2,2.133,6.4,4.267,8.533,6.4l0,0c3.2,0,6.4,0,9.6,0c-3.2,0-6.4,0-9.6,0l0,0l0,0
		c-3.2-2.133-6.4-4.267-8.533-6.4c-1.067-1.067-3.2-2.133-4.267-2.133c-1.067-1.067-3.2-1.067-4.267-2.133l0,0
		c-1.067,0-2.133,0-2.133,0s0,1.067,1.067,2.133c1.067,2.133,3.2,3.2,4.267,5.333C21.164,425.701,25.431,428.901,28.631,431.034z"/>
	<path style="fill:#F8B64C;" d="M49.964,429.968c-3.2-2.133-7.467-5.333-10.667-8.533c-1.067-2.133-3.2-3.2-4.267-5.333
		c0-1.067-1.067-1.067-1.067-2.133c0-1.067,0-1.067,1.067-2.133c1.067-1.067,2.133-1.067,2.133-1.067
		c5.333,2.133,10.667,5.333,13.867,9.6l0,0h4.267h-4.267l0,0l0,0c-3.2-4.267-8.533-6.4-12.8-8.533l0,0c-1.067,0-2.133,0-2.133,1.067
		c0,0,0,0,0,1.067v1.067c1.067,2.133,2.133,3.2,4.267,5.333C43.564,423.568,46.764,426.768,49.964,429.968z"/>
</g>
<g>
	
		<ellipse transform="matrix(-0.6956 -0.7184 0.7184 -0.6956 -272.8611 719.0692)" style="fill:#FF7058;" cx="15.901" cy="417.339" rx="5.333" ry="3.2"/>
	
		<ellipse transform="matrix(-0.6197 -0.7849 0.7849 -0.6197 -263.0939 700.2787)" style="fill:#FF7058;" cx="38.124" cy="413.885" rx="4.267" ry="3.2"/>
</g>
<path style="fill:#F8B64C;" d="M19.031,394.768c1.067-2.133,2.133-4.267,3.2-6.4c1.067-1.067,1.067-2.133,2.133-3.2
	c1.067-1.067,2.133-2.133,4.267-1.067l0,0l0,0c1.067,0,1.067,1.067,1.067,1.067v1.067c0,1.067,0,1.067,0,2.133
	c0,1.067,0,2.133,0,3.2c0,2.133-1.067,5.333-3.2,6.4c2.133-1.067,2.133-4.267,2.133-6.4c0-1.067,0-2.133,0-3.2s0-1.067,0-1.067
	s0,0,0-1.067l0,0l0,0l0,0c-1.067,0-2.133,0-2.133,1.067c-1.067,1.067-2.133,1.067-2.133,2.133
	C22.231,390.501,20.097,392.634,19.031,394.768z"/>
<g>
	
		<ellipse transform="matrix(-0.436 0.8999 -0.8999 -0.436 388.5445 534.9465)" style="fill:#FF7058;" cx="26.65" cy="389.222" rx="5.333" ry="3.2"/>
	<path style="fill:#FF7058;" d="M340.097,233.701h37.333c0,0,11.733-60.8-22.4-69.333l-57.6-7.467h-41.6h-40.533l-58.667,7.467
		c-34.133,8.533-22.4,69.333-22.4,69.333h37.333c0,0,1.067-3.2,3.2,0c0,0,22.4,45.867,16,97.067c0,0,2.133,29.867-28.8,58.667
		h93.867h93.867c-29.867-28.8-28.8-58.667-28.8-58.667c-5.333-51.2,16-97.067,16-97.067
		C339.031,229.434,340.097,233.701,340.097,233.701z"/>
</g>
<path style="fill:#FFD15C;" d="M336.897,325.434c9.6,28.8,75.733,87.467,75.733,87.467c34.133,20.267,49.067,20.267,49.067,20.267
	c16,4.267,20.267-1.067,20.267-1.067c10.667,4.267,27.733-17.067,27.733-17.067c1.067-10.667-7.467-4.267-7.467-4.267
	c-3.2,3.2-5.333,2.133-5.333,2.133c-2.133-23.467-16-28.8-16-28.8s-11.733,7.467-19.2,7.467s-18.133,5.333-18.133,5.333
	c-8.533,6.4-14.933-3.2-14.933-3.2c-5.333-12.8-55.467-85.333-55.467-85.333c-1.067-8.533,4.267-74.667,4.267-74.667h-37.333
	C334.764,264.634,336.897,325.434,336.897,325.434z M473.431,399.034c4.267,0,8.533-5.333,8.533-5.333
	c1.067,4.267,2.133,4.267,2.133,4.267c7.467,13.867-1.067,16-1.067,16c-9.6,3.2-11.733-5.333-11.733-5.333
	C465.964,404.368,473.431,399.034,473.431,399.034z"/>
<ellipse transform="matrix(-0.5283 0.849 -0.849 -0.5283 1128.1565 200.2775)" style="fill:#FF7058;" cx="508.447" cy="413.505" rx="5.333" ry="3.2"/>
<g>
	<path style="fill:#F8B64C;" d="M483.031,431.034c4.267-2.133,7.467-5.333,10.667-8.533c2.133-1.067,3.2-3.2,5.333-5.333
		c0,0,1.067-1.067,1.067-2.133c0-1.067,0-1.067,0-2.133c-1.067-1.067-3.2-1.067-4.267-1.067l0,0l0,0c-2.133,0-3.2,1.067-5.333,2.133
		c-2.133,1.067-3.2,2.133-4.267,3.2c-3.2,2.133-6.4,4.267-8.533,6.4l0,0c-3.2,0-6.4,0-9.6,0c3.2,0,6.4,0,9.6,0l0,0l0,0
		c3.2-2.133,6.4-4.267,8.533-6.4c1.067-1.067,3.2-2.133,4.267-2.133c1.067-1.067,3.2-1.067,4.267-2.133l0,0c1.067,0,2.133,0,2.133,0
		s0,1.067-1.067,2.133c-1.067,2.133-3.2,3.2-4.267,5.333C490.497,425.701,486.231,428.901,483.031,431.034z"/>
	<path style="fill:#F8B64C;" d="M461.697,429.968c3.2-2.133,7.467-5.333,10.667-8.533c1.067-2.133,3.2-3.2,4.267-5.333
		c0-1.067,1.067-1.067,1.067-2.133c0-1.067,0-1.067-1.067-2.133c-1.067-1.067-2.133-1.067-2.133-1.067
		c-5.333,2.133-10.667,5.333-13.867,9.6l0,0h-4.267h4.267l0,0l0,0c3.2-4.267,8.533-6.4,12.8-8.533l0,0c1.067,0,2.133,0,2.133,1.067
		c0,0,0,0,0,1.067v1.067c-1.067,2.133-2.133,3.2-4.267,5.333C468.097,423.568,464.897,426.768,461.697,429.968z"/>
</g>
<g>
	
		<ellipse transform="matrix(-0.6956 0.7184 -0.7184 -0.6956 1139.6792 351.1481)" style="fill:#FF7058;" cx="495.451" cy="417.009" rx="5.333" ry="3.2"/>
	
		<ellipse transform="matrix(-0.6197 0.7849 -0.7849 -0.6197 1092.399 299.2448)" style="fill:#FF7058;" cx="473.695" cy="414.301" rx="4.267" ry="3.2"/>
</g>
<path style="fill:#F8B64C;" d="M492.631,394.768c-1.067-2.133-2.133-4.267-3.2-6.4c-1.067-1.067-1.067-2.133-2.133-3.2
	c-1.067-1.067-2.133-2.133-4.267-1.067l0,0l0,0c-1.067,0-1.067,1.067-1.067,1.067v1.067c0,1.067,0,1.067,0,2.133
	c0,1.067,0,2.133,0,3.2c0,2.133,1.067,5.333,3.2,6.4c-2.133-1.067-2.133-4.267-2.133-6.4c0-1.067,0-2.133,0-3.2s0-1.067,0-1.067
	s0,0,0-1.067l0,0l0,0l0,0c1.067,0,2.133,0,2.133,1.067c1.067,1.067,2.133,1.067,2.133,2.133
	C489.431,390.501,491.564,392.634,492.631,394.768z"/>
<ellipse transform="matrix(-0.436 -0.8999 0.8999 -0.436 344.5369 995.2122)" style="fill:#FF7058;" cx="484.113" cy="389.647" rx="5.333" ry="3.2"/>
<path style="fill:#F8B64C;" d="M301.697,112.101h-91.733c4.267,16,4.267,32,0,48c-6.4,28.8,12.8,57.6,42.667,57.6
	c2.133,0,4.267,0,6.4,0c29.867-1.067,49.067-28.8,42.667-57.6C297.431,144.101,297.431,128.101,301.697,112.101z"/>
<path style="fill:#FFD15C;" d="M315.564,85.434c0,33.067-26.667,85.333-59.733,85.333s-59.733-52.267-59.733-85.333
	s26.667-59.733,59.733-59.733S315.564,52.368,315.564,85.434z"/>
<path style="fill:#40596B;" d="M256.897,4.368h-1.067c-37.333,0-66.133,27.733-66.133,60.8v11.733h27.733l8.533-18.133v18.133h48
	V56.634l5.333,19.2h4.267V51.301l11.733,25.6h26.667V65.168C323.031,32.101,293.164,4.368,256.897,4.368z"/>
<path style="fill:#F8B64C;" d="M198.231,444.901l113.067,30.933l6.4-44.8l-48-2.133c-18.133,4.267-24.533-17.067-24.533-17.067
	c-10.667-22.4-32-8.533-32-8.533c-30.933,6.4-52.267-10.667-52.267-10.667c-13.867-6.4-21.333,4.267-21.333,4.267
	c-17.067,0-21.333,13.867-21.333,13.867s29.867,2.133,46.933,13.867C165.164,426.768,190.764,444.901,198.231,444.901z"/>
<path style="fill:#FF7058;" d="M118.231,412.901c0,0-3.2,6.4,5.333,3.2c0,0,3.2-1.067,3.2-3.2
	C126.764,412.901,118.231,412.901,118.231,412.901z"/>
<path style="fill:#FFD15C;" d="M299.564,458.768l-113.067,30.933l-6.4-44.8l48-2.133c18.133,4.267,24.533-17.067,24.533-17.067
	c10.667-22.4,32-8.533,32-8.533c30.933,6.4,52.267-10.667,52.267-10.667c13.867-6.4,21.333,4.267,21.333,4.267
	c17.067,0,21.333,13.867,21.333,13.867s-29.867,2.133-46.933,13.867C332.631,439.568,308.097,457.701,299.564,458.768z"/>
<path style="fill:#FF7058;" d="M380.631,425.701c0,0,3.2,6.4-5.333,3.2c0,0-3.2-1.067-3.2-3.2H380.631z"/>
<g>
</g>
<g>
</g>
<g>
</g>
<g>
</g>
<g>
</g>
<g>
</g>
<g>
</g>
<g>
</g>
<g>
</g>
<g>
</g>
<g>
</g>
<g>
</g>
<g>
</g>
<g>
</g>
<g>
</g>
</svg>
