<?xml version="1.0" encoding="UTF-8"?>
<svg width="1601px" height="429px" viewBox="0 0 1601 429" version="1.1" xmlns="http://www.w3.org/2000/svg" xmlns:xlink="http://www.w3.org/1999/xlink">
    <!-- Generator: Sketch 49.3 (51167) - http://www.bohemiancoding.com/sketch -->
    <title>White</title>
    <desc>Created with Sketch.</desc>
    <defs></defs>
    <g id="Page-1" stroke="none" stroke-width="1" fill="none" fill-rule="evenodd">
        <g id="White" transform="translate(0.000000, -51.000000)">
            <g id="Group">
                <g id="apartments" transform="translate(0.000000, 183.000000)">
                    <path d="M49.667,219.396 C47.667,220.722 44.667,221.736 41.667,222.396 L41.667,246.5 L49.667,246.5 L49.667,219.396 Z" id="Shape"></path>
                    <path d="M247.667,219.396 L247.667,246.5 L254.667,246.5 L254.667,222.15 C252.667,221.494 250.667,220.564 247.667,219.396 Z" id="Shape"></path>
                    <path d="M34.224,207.281 C41.079,207.281 47.667,203.285 49.667,197.51 L49.667,182.27 C47.667,176.495 41.079,172.499 34.224,172.499 C24.635,172.499 16.833,180.301 16.833,189.891 C16.833,199.48 24.635,207.281 34.224,207.281 Z" id="Shape" fill="#28A745" fill-rule="nonzero"></path>
                    <path d="M247.667,197.51 C250.667,203.285 256.588,207.281 263.442,207.281 C273.032,207.281 280.917,199.479 280.917,189.89 C280.917,180.3 272.99,172.498 263.401,172.498 C256.547,172.498 250.668,176.494 247.668,182.269 L247.668,197.51 L247.667,197.51 Z" id="Shape" fill="#28A745" fill-rule="nonzero"></path>
                    <rect id="Rectangle-path" fill="#FFC107" fill-rule="nonzero" x="220.667" y="41.5" width="11" height="205"></rect>
                    <rect id="Rectangle-path" fill="#FFC107" fill-rule="nonzero" x="65.667" y="41.5" width="10" height="205"></rect>
                    <path d="M91.667,246.5 L204.667,246.5 L204.667,16.5 L91.667,16.5 L91.667,246.5 Z M123.667,207.5 C123.667,211.918 120.085,215.5 115.667,215.5 C111.249,215.5 107.667,211.918 107.667,207.5 L107.667,190.5 C107.667,186.082 111.249,182.5 115.667,182.5 C120.085,182.5 123.667,186.082 123.667,190.5 L123.667,207.5 Z M123.667,157.5 C123.667,161.918 120.085,165.5 115.667,165.5 C111.249,165.5 107.667,161.918 107.667,157.5 L107.667,140.5 C107.667,136.082 111.249,132.5 115.667,132.5 C120.085,132.5 123.667,136.082 123.667,140.5 L123.667,157.5 Z M123.667,107.5 C123.667,111.918 120.085,115.5 115.667,115.5 C111.249,115.5 107.667,111.918 107.667,107.5 L107.667,90.5 C107.667,86.082 111.249,82.5 115.667,82.5 C120.085,82.5 123.667,86.082 123.667,90.5 L123.667,107.5 Z M123.667,58.5 C123.667,62.918 120.085,66.5 115.667,66.5 C111.249,66.5 107.667,62.918 107.667,58.5 L107.667,41.5 C107.667,37.082 111.249,33.5 115.667,33.5 C120.085,33.5 123.667,37.082 123.667,41.5 L123.667,58.5 Z M156.667,207.5 C156.667,211.918 153.085,215.5 148.667,215.5 C144.249,215.5 140.667,211.918 140.667,207.5 L140.667,190.5 C140.667,186.082 144.249,182.5 148.667,182.5 C153.085,182.5 156.667,186.082 156.667,190.5 L156.667,207.5 Z M156.667,157.5 C156.667,161.918 153.085,165.5 148.667,165.5 C144.249,165.5 140.667,161.918 140.667,157.5 L140.667,140.5 C140.667,136.082 144.249,132.5 148.667,132.5 C153.085,132.5 156.667,136.082 156.667,140.5 L156.667,157.5 Z M156.667,107.5 C156.667,111.918 153.085,115.5 148.667,115.5 C144.249,115.5 140.667,111.918 140.667,107.5 L140.667,90.5 C140.667,86.082 144.249,82.5 148.667,82.5 C153.085,82.5 156.667,86.082 156.667,90.5 L156.667,107.5 Z M156.667,58.5 C156.667,62.918 153.085,66.5 148.667,66.5 C144.249,66.5 140.667,62.918 140.667,58.5 L140.667,41.5 C140.667,37.082 144.249,33.5 148.667,33.5 C153.085,33.5 156.667,37.082 156.667,41.5 L156.667,58.5 Z M189.667,207.5 C189.667,211.918 186.085,215.5 181.667,215.5 C177.249,215.5 173.667,211.918 173.667,207.5 L173.667,190.5 C173.667,186.082 177.249,182.5 181.667,182.5 C186.085,182.5 189.667,186.082 189.667,190.5 L189.667,207.5 Z M189.667,157.5 C189.667,161.918 186.085,165.5 181.667,165.5 C177.249,165.5 173.667,161.918 173.667,157.5 L173.667,140.5 C173.667,136.082 177.249,132.5 181.667,132.5 C186.085,132.5 189.667,136.082 189.667,140.5 L189.667,157.5 Z M189.667,107.5 C189.667,111.918 186.085,115.5 181.667,115.5 C177.249,115.5 173.667,111.918 173.667,107.5 L173.667,90.5 C173.667,86.082 177.249,82.5 181.667,82.5 C186.085,82.5 189.667,86.082 189.667,90.5 L189.667,107.5 Z M189.667,41.5 L189.667,58.5 C189.667,62.918 186.085,66.5 181.667,66.5 C177.249,66.5 173.667,62.918 173.667,58.5 L173.667,41.5 C173.667,37.082 177.249,33.5 181.667,33.5 C186.085,33.5 189.667,37.082 189.667,41.5 Z" id="Shape" fill="#FFFFFF" fill-rule="nonzero"></path>
                    <path d="M272,262.5 L25,262.5 C20.037,262.5 16,266.537 16,271.5 C16,276.463 20.037,280.5 25,280.5 L272,280.5 C276.963,280.5 281,276.463 281,271.5 C281,266.537 276.963,262.5 272,262.5 Z" id="Shape" fill="#28A745" fill-rule="nonzero"></path>
                    <path d="M272,246.5 L270.667,246.5 L270.667,222.446 C285.667,219.072 296.834,205.761 296.834,189.89 C296.834,171.478 281.771,156.498 263.359,156.498 C257.723,156.498 252.667,157.907 247.667,160.383 L247.667,33.5 C247.667,29.082 244.418,25.5 240,25.5 L220.667,25.5 L220.667,8.5 C220.667,4.082 217.418,0.5 213,0.5 L84,0.5 C79.582,0.5 75.667,4.082 75.667,8.5 L75.667,25.5 L58,25.5 C53.582,25.5 49.667,29.082 49.667,33.5 L49.667,160.385 C45.667,157.908 39.861,156.499 34.224,156.499 C15.812,156.499 0.75,171.479 0.75,189.891 C0.75,205.407 11.667,218.482 25.667,222.213 L25.667,246.5 L25,246.5 C11.215,246.5 0,257.715 0,271.5 C0,285.285 11.215,296.5 25,296.5 L272,296.5 C285.785,296.5 297,285.285 297,271.5 C297,257.715 285.785,246.5 272,246.5 Z M272,280.5 L25,280.5 C20.037,280.5 16,276.463 16,271.5 C16,266.537 20.037,262.5 25,262.5 L272,262.5 C276.963,262.5 281,266.537 281,271.5 C281,276.463 276.963,280.5 272,280.5 Z M34.224,172.499 C41.079,172.499 47.667,176.495 49.667,182.27 L49.667,197.509 C47.667,203.284 41.079,207.28 34.224,207.28 C24.635,207.28 16.833,199.478 16.833,189.889 C16.833,180.301 24.635,172.499 34.224,172.499 Z M204.667,16.5 L204.667,246.5 L91.667,246.5 L91.667,16.5 L204.667,16.5 Z M263.442,172.499 C273.032,172.499 280.917,180.301 280.917,189.891 C280.917,199.48 272.99,207.282 263.401,207.282 C256.547,207.282 250.668,203.286 247.668,197.511 L247.668,182.27 C250.667,176.495 256.588,172.499 263.442,172.499 Z M247.667,246.5 L247.667,219.396 C250.667,220.564 252.667,221.494 254.667,222.15 L254.667,246.5 L247.667,246.5 Z M231.667,246.5 L220.667,246.5 L220.667,41.5 L231.667,41.5 L231.667,246.5 Z M75.667,246.5 L65.667,246.5 L65.667,41.5 L75.667,41.5 L75.667,246.5 Z M41.667,222.396 C44.667,221.736 47.667,220.722 49.667,219.396 L49.667,246.5 L41.667,246.5 L41.667,222.396 Z" id="Shape" fill="#000000" fill-rule="nonzero"></path>
                    <path d="M115.667,132.5 C111.249,132.5 107.667,136.082 107.667,140.5 L107.667,157.5 C107.667,161.918 111.249,165.5 115.667,165.5 C120.085,165.5 123.667,161.918 123.667,157.5 L123.667,140.5 C123.667,136.082 120.085,132.5 115.667,132.5 Z" id="Shape" fill="#000000" fill-rule="nonzero"></path>
                    <path d="M115.667,182.5 C111.249,182.5 107.667,186.082 107.667,190.5 L107.667,207.5 C107.667,211.918 111.249,215.5 115.667,215.5 C120.085,215.5 123.667,211.918 123.667,207.5 L123.667,190.5 C123.667,186.082 120.085,182.5 115.667,182.5 Z" id="Shape" fill="#000000" fill-rule="nonzero"></path>
                    <path d="M115.667,82.5 C111.249,82.5 107.667,86.082 107.667,90.5 L107.667,107.5 C107.667,111.918 111.249,115.5 115.667,115.5 C120.085,115.5 123.667,111.918 123.667,107.5 L123.667,90.5 C123.667,86.082 120.085,82.5 115.667,82.5 Z" id="Shape" fill="#000000" fill-rule="nonzero"></path>
                    <path d="M115.667,33.5 C111.249,33.5 107.667,37.082 107.667,41.5 L107.667,58.5 C107.667,62.918 111.249,66.5 115.667,66.5 C120.085,66.5 123.667,62.918 123.667,58.5 L123.667,41.5 C123.667,37.082 120.085,33.5 115.667,33.5 Z" id="Shape" fill="#000000" fill-rule="nonzero"></path>
                    <path d="M148.667,132.5 C144.249,132.5 140.667,136.082 140.667,140.5 L140.667,157.5 C140.667,161.918 144.249,165.5 148.667,165.5 C153.085,165.5 156.667,161.918 156.667,157.5 L156.667,140.5 C156.667,136.082 153.085,132.5 148.667,132.5 Z" id="Shape" fill="#000000" fill-rule="nonzero"></path>
                    <path d="M148.667,182.5 C144.249,182.5 140.667,186.082 140.667,190.5 L140.667,207.5 C140.667,211.918 144.249,215.5 148.667,215.5 C153.085,215.5 156.667,211.918 156.667,207.5 L156.667,190.5 C156.667,186.082 153.085,182.5 148.667,182.5 Z" id="Shape" fill="#000000" fill-rule="nonzero"></path>
                    <path d="M148.667,82.5 C144.249,82.5 140.667,86.082 140.667,90.5 L140.667,107.5 C140.667,111.918 144.249,115.5 148.667,115.5 C153.085,115.5 156.667,111.918 156.667,107.5 L156.667,90.5 C156.667,86.082 153.085,82.5 148.667,82.5 Z" id="Shape" fill="#000000" fill-rule="nonzero"></path>
                    <path d="M148.667,33.5 C144.249,33.5 140.667,37.082 140.667,41.5 L140.667,58.5 C140.667,62.918 144.249,66.5 148.667,66.5 C153.085,66.5 156.667,62.918 156.667,58.5 L156.667,41.5 C156.667,37.082 153.085,33.5 148.667,33.5 Z" id="Shape" fill="#000000" fill-rule="nonzero"></path>
                    <path d="M181.667,132.5 C177.249,132.5 173.667,136.082 173.667,140.5 L173.667,157.5 C173.667,161.918 177.249,165.5 181.667,165.5 C186.085,165.5 189.667,161.918 189.667,157.5 L189.667,140.5 C189.667,136.082 186.085,132.5 181.667,132.5 Z" id="Shape" fill="#000000" fill-rule="nonzero"></path>
                    <path d="M181.667,182.5 C177.249,182.5 173.667,186.082 173.667,190.5 L173.667,207.5 C173.667,211.918 177.249,215.5 181.667,215.5 C186.085,215.5 189.667,211.918 189.667,207.5 L189.667,190.5 C189.667,186.082 186.085,182.5 181.667,182.5 Z" id="Shape" fill="#000000" fill-rule="nonzero"></path>
                    <path d="M181.667,82.5 C177.249,82.5 173.667,86.082 173.667,90.5 L173.667,107.5 C173.667,111.918 177.249,115.5 181.667,115.5 C186.085,115.5 189.667,111.918 189.667,107.5 L189.667,90.5 C189.667,86.082 186.085,82.5 181.667,82.5 Z" id="Shape" fill="#000000" fill-rule="nonzero"></path>
                    <path d="M173.667,41.5 L173.667,58.5 C173.667,62.918 177.249,66.5 181.667,66.5 C186.085,66.5 189.667,62.918 189.667,58.5 L189.667,41.5 C189.667,37.082 186.085,33.5 181.667,33.5 C177.249,33.5 173.667,37.082 173.667,41.5 Z" id="Shape" fill="#000000" fill-rule="nonzero"></path>
                </g>
                <g id="mortarboard" transform="translate(201.909943, 161.589078) rotate(20.000000) translate(-201.909943, -161.589078) translate(50.909943, 44.589078)" fill-rule="nonzero">
                    <path d="M86.439183,99.3444969 C86.439183,89.5750266 115.568271,81.6551248 151.5,81.6551248 C187.431729,81.6551248 216.560817,89.5750266 216.560817,99.3444969 L216.560817,139 L297,93.392635 L151.500591,5 L6,93.392635 L86.439183,139 L86.439183,99.3444969 Z" id="Shape" fill="#6E6E6E"></path>
                    <circle id="Oval" fill="#FFB929" cx="257" cy="189" r="15"></circle>
                    <path d="M216,175.055467 L216,99.6786243 C216,89.9150898 186.898273,82 151.000295,82 C115.102318,82 86,89.9150898 86,99.6786243 L86,175.055467 C121.925739,175.157962 151.000295,188.017553 151.000295,211 C151.000295,187.120427 180.074852,175.157962 216,175.055467 Z" id="Shape" fill="#AAAAA0"></path>
                    <path d="M299.239773,89.4648192 L154.07982,0.863169961 C152.1935,-0.28772332 149.824687,-0.28772332 147.938367,0.863169961 C147.938367,0.863169961 3.14647687,89.2397215 2.77900423,89.4648192 C-0.99894488,91.7707414 -0.902800351,97.4655362 2.9323636,99.6497521 L80.1995332,143.665512 L80.1995332,176.078401 C80.1995332,179.336114 82.8314159,181.979387 86.0838143,181.98884 C104.546513,182.042013 145.108297,186.16585 145.108297,212.130074 C145.108297,215.393695 147.750797,218.040513 151.009094,218.040513 C154.26739,218.040513 156.90989,215.393695 156.90989,212.130074 C156.90989,190.007282 188.706596,182.066827 215.934373,181.98884 C219.186771,181.979387 221.818654,179.336114 221.818654,176.078401 L221.818654,143.665512 L250.14236,127.530555 L250.14236,169.258117 C241.621478,171.808043 235.390368,179.726638 235.390368,189.080304 C235.390368,192.638148 236.29224,195.989209 237.878329,198.91607 L224.331978,212.484558 C222.027459,214.792844 222.027459,218.535019 224.331978,220.843895 C226.614673,223.129139 230.40265,223.121459 232.677677,220.843895 L246.224028,207.275407 C247.459751,207.947156 248.772743,208.492471 250.14295,208.902491 L250.14295,228.08956 C250.14295,231.353182 252.78545,234 256.043747,234 C259.302044,234 261.944543,231.353182 261.944543,228.08956 L261.944543,208.902491 C263.31534,208.492471 264.627743,207.947156 265.863465,207.275407 C265.863465,207.275407 279.351422,220.785406 279.409227,220.843305 C281.613473,223.051153 285.552449,223.048199 287.754926,220.843305 C290.059445,218.535019 290.059445,214.792844 287.754926,212.483967 L274.208574,198.915479 C275.794664,195.988618 276.696535,192.637557 276.696535,189.079714 C276.696535,179.727229 270.465426,171.807452 261.944543,169.257526 L261.944543,120.807755 C261.944543,120.807755 299.050433,99.6704303 299.085824,99.6491613 C302.809507,97.5281618 303.076116,91.805599 299.239773,89.4648192 Z M264.894942,189.079123 C264.894942,193.967465 260.924114,197.944782 256.043747,197.944782 C251.16338,197.944782 247.192552,193.967465 247.192552,189.079123 C247.192552,184.19078 251.16338,180.213463 256.043747,180.213463 C260.924114,180.213463 264.894942,184.189599 264.894942,189.079123 Z M210.017061,170.288486 C193.067901,170.94251 178.399667,174.233899 167.326531,179.897972 C160.103304,183.592883 154.57234,188.203546 150.83568,193.582259 C147.087223,188.389059 141.664789,183.867609 134.731176,180.25482 C123.4687,174.386918 108.789849,170.976186 92.0011266,170.293803 L92.0011266,124.292339 C92.1892868,123.979211 92.886482,123.169213 94.2018336,122.312542 C96.8455132,120.527122 101.466349,118.677894 106.871677,117.229233 C112.718798,115.639961 119.888348,114.362635 127.594657,113.517189 C130.79161,113.166249 133.172219,110.208666 132.823621,107.004716 C132.477383,103.820854 129.498672,101.412722 126.321184,101.767207 C114.808614,103.029763 102.538685,104.991835 92.0017164,110.040877 L92.0017164,100.648808 C92.5602985,99.5504964 96.6255015,96.0936809 108.903099,93.0610653 C120.399153,90.221053 135.353461,88.6571851 151.010273,88.6571851 C166.667085,88.6571851 181.621394,90.221053 193.117448,93.0610653 C205.394455,96.0936809 209.459068,99.5499056 210.01883,100.648808 L210.01883,110.038514 C206.4721,108.33167 202.172139,106.831019 196.983874,105.48575 C190.457842,103.807265 182.962698,102.524622 174.701937,101.661452 C171.51973,101.329418 168.558124,103.751139 168.228992,106.933229 C167.899269,110.120636 170.322937,113.088263 173.486859,113.423251 C184.987632,114.605457 195.125276,116.750679 202.041784,119.451852 C204.463682,120.388873 208.702299,121.833988 210.01883,124.303564 L210.017061,170.288486 Z M221.818654,130.065711 L221.818654,100.476883 C221.818654,81.8144511 177.308456,76.8351243 151.008504,76.8351243 C124.708551,76.8351243 80.1983535,81.8144511 80.1983535,100.476883 L80.1983535,130.065711 L17.4761405,94.3354373 L151.009094,12.8311603 L284.542047,94.3348465 L221.818654,130.065711 Z" id="Shape" fill="#000000"></path>
                    <path d="M151.000015,100 C151.000015,100 150.982622,100 150.982022,100 C147.727737,100 144.988044,102.770892 145.000039,106.011995 C145.006037,109.311875 147.694151,112 151.01261,112 C154.318474,111.988005 157.005988,109.293882 156.99999,105.988005 C156.993992,102.682127 154.300481,100 151.000015,100 Z" id="Shape" fill="#000000"></path>
                </g>
            </g>
            <g id="RoomieU-2" transform="translate(332.000000, 132.000000)">
                <text id="Roomie" stroke="#28A745" fill="#28A745" font-family="Cabin-Bold, Cabin" font-size="300" font-weight="bold">
                    <tspan x="0" y="296">Roomie</tspan>
                </text>
                <g id="uparty-white" transform="translate(1140.728580, 142.686331) rotate(1.000000) translate(-1140.728580, -142.686331) translate(1014.228580, 2.186331)">
                    <path d="M42.2870859,158.576572 C42.2870859,158.576572 48.275711,280.151944 128.182729,280.151944 C181.454074,280.151944 210.085955,239.62682 214.078372,158.576572" id="Line" stroke="#28A745" stroke-width="40" stroke-linecap="square"></path>
                    <circle id="Oval-2" fill="#FFC107" fill-rule="nonzero" cx="37.6619359" cy="37.6619359" r="37.6619359"></circle>
                    <circle id="Oval-2-Copy" fill="#FFC107" fill-rule="nonzero" cx="214.739108" cy="37.6619359" r="37.6619359"></circle>
                </g>
            </g>
        </g>
    </g>
</svg>